<?xml version="1.0" standalone="no"?>
<!DOCTYPE svg PUBLIC "-//W3C//DTD SVG 20010904//EN"
 "http://www.w3.org/TR/2001/REC-SVG-20010904/DTD/svg10.dtd">
<svg version="1.0" xmlns="http://www.w3.org/2000/svg"
 width="318.000000pt" height="499.000000pt" viewBox="0 0 318.000000 499.000000"
 preserveAspectRatio="xMidYMid meet">
<metadata>
Created by potrace 1.16, written by Peter Selinger 2001-2019
</metadata>
<g transform="translate(0.000000,499.000000) scale(0.100000,-0.100000)"
fill="#000000" stroke="none">
<path d="M1547 4709 c-16 -4 -43 -18 -60 -31 -18 -13 -45 -30 -62 -38 -44 -22
-146 -129 -165 -175 -18 -41 -33 -163 -31 -249 1 -37 7 -56 23 -73 19 -21 23
-36 24 -106 1 -79 23 -180 42 -199 12 -12 7 39 -8 78 -7 17 -11 93 -11 188 1
141 3 163 21 193 12 20 20 52 20 77 0 45 10 63 51 89 25 15 74 13 64 -3 -6
-10 36 0 52 12 8 6 31 6 63 -1 64 -14 127 -14 132 -1 2 7 31 1 73 -15 38 -14
78 -25 88 -25 23 0 39 -43 32 -84 -3 -17 1 -53 9 -81 9 -27 19 -87 22 -131 6
-68 3 -93 -15 -154 -15 -47 -31 -80 -47 -92 -13 -11 -23 -24 -21 -30 1 -6 -4
-13 -10 -15 -7 -3 -13 0 -13 7 0 6 -4 8 -10 5 -5 -3 -16 7 -22 22 -13 28 -46
62 -62 63 -20 0 -61 46 -58 64 3 12 -1 17 -10 14 -7 -3 -13 -10 -13 -17 0 -20
-27 -31 -42 -16 -7 8 -13 18 -13 24 0 17 -30 13 -36 -4 -9 -23 -24 -18 -24 8
-1 20 -2 21 -14 5 -7 -10 -16 -15 -19 -11 -4 3 -7 1 -7 -5 0 -5 6 -13 13 -15
8 -3 1 -16 -21 -37 -18 -17 -42 -51 -53 -75 -11 -24 -28 -50 -37 -57 -15 -12
-16 -11 -4 4 18 22 6 44 -14 27 -8 -7 -14 -19 -13 -28 3 -29 -1 -32 -22 -21
-18 10 -19 9 -11 -7 10 -18 12 -25 12 -43 0 -6 12 -23 28 -37 15 -15 20 -23
12 -18 -11 6 -10 3 3 -12 9 -11 17 -24 17 -29 0 -17 70 -67 138 -98 17 -8 32
-21 32 -28 0 -8 -3 -9 -8 -3 -15 21 -98 30 -128 14 -22 -11 -29 -11 -52 3 -15
9 -29 27 -32 40 -4 16 -8 19 -14 10 -4 -6 -4 -17 -1 -22 4 -6 0 -22 -9 -35 -9
-13 -16 -29 -16 -34 0 -5 -5 -22 -11 -38 -10 -26 -12 -27 -23 -10 -11 14 -15
15 -25 3 -8 -10 -48 -14 -164 -15 -83 -1 -167 -4 -185 -7 -40 -8 -110 -74
-136 -128 -10 -22 -34 -55 -53 -75 -22 -23 -31 -40 -27 -53 4 -13 0 -18 -14
-18 -27 0 -51 -29 -33 -39 10 -7 8 -12 -6 -22 -22 -16 -26 -49 -6 -49 7 0 13
-9 13 -20 0 -13 -5 -18 -15 -14 -8 4 -15 10 -15 15 0 5 -4 9 -10 9 -5 0 -10
-8 -10 -17 0 -14 -2 -15 -9 -4 -5 7 -14 10 -20 6 -9 -5 -9 -10 0 -21 6 -8 9
-17 6 -20 -7 -7 33 -126 47 -139 14 -12 19 -78 6 -70 -6 4 -10 12 -10 20 0 8
-11 27 -25 42 -14 15 -30 34 -37 42 -10 12 -13 11 -19 -5 -3 -10 -2 -24 3 -31
10 -12 48 -147 48 -170 0 -26 -31 -12 -75 33 -29 29 -39 43 -26 39 16 -5 18
-2 14 15 -7 25 -12 25 -29 3 -28 -37 -15 -66 55 -123 13 -11 19 -20 13 -20
-21 0 -13 -42 8 -47 13 -3 20 -14 20 -29 0 -18 -4 -22 -17 -17 -12 5 -15 2
-10 -10 3 -8 1 -18 -6 -20 -9 -3 -8 -8 2 -20 12 -15 11 -17 -7 -17 -24 0 -46
-25 -39 -44 3 -8 -3 -31 -14 -51 -20 -38 -23 -101 -4 -98 6 1 11 -7 11 -17 0
-10 -4 -17 -7 -14 -12 7 -21 -15 -14 -36 4 -11 11 -18 16 -14 6 3 8 9 5 12 -7
6 23 42 36 42 4 0 8 -7 8 -15 0 -8 -6 -14 -12 -13 -7 2 -11 -4 -9 -12 2 -8 5
-28 7 -44 5 -38 11 -43 33 -29 15 10 22 8 37 -8 16 -18 16 -20 1 -37 -10 -10
-17 -27 -17 -36 0 -13 -6 -17 -20 -13 -25 6 -28 -24 -5 -47 13 -13 14 -19 3
-36 -11 -18 -10 -23 6 -35 10 -7 15 -18 12 -23 -4 -8 -2 -34 20 -180 6 -40 28
-51 54 -27 11 10 22 16 24 14 15 -17 35 -70 30 -82 -7 -18 21 -41 42 -33 9 3
18 15 21 26 5 20 35 26 67 14 35 -13 11 -44 -35 -44 -12 0 -19 -7 -19 -20 0
-17 -5 -19 -24 -14 -21 5 -25 1 -31 -28 -4 -18 -12 -39 -18 -47 -9 -10 -6 -17
10 -31 15 -12 20 -24 16 -39 -4 -17 -8 -19 -14 -9 -7 10 -9 9 -9 -4 0 -11 8
-18 20 -18 14 0 20 -6 19 -22 -1 -18 -2 -19 -6 -5 -9 36 -38 14 -47 -36 -12
-59 5 -85 33 -52 9 11 27 26 39 33 19 10 22 10 22 -3 0 -8 7 -15 15 -15 8 0
15 -4 15 -10 0 -14 22 -8 38 10 11 13 12 12 8 -5 -2 -11 -8 -36 -12 -55 -9
-41 -8 -37 -23 -76 -9 -23 -17 -30 -30 -27 -12 3 -23 -6 -36 -31 -11 -20 -25
-36 -31 -36 -7 0 -15 -8 -19 -17 -10 -26 -15 -83 -6 -83 4 0 22 16 41 35 19
19 38 35 42 35 5 0 18 9 30 20 20 19 50 23 56 7 6 -19 -3 -30 -62 -77 -71 -55
-81 -72 -65 -101 8 -15 7 -26 -4 -42 -8 -12 -24 -49 -36 -82 -12 -33 -27 -65
-33 -72 -7 -9 -6 -14 6 -19 10 -4 16 -18 16 -40 0 -37 13 -43 44 -19 11 8 29
15 39 15 19 0 19 -1 3 -19 -10 -11 -31 -23 -47 -26 -22 -5 -29 -12 -29 -31 0
-25 15 -33 23 -11 3 6 6 3 6 -7 1 -20 1 -20 17 0 15 18 15 18 9 -11 -9 -40 -9
-40 -55 -25 -22 7 -41 11 -43 9 -21 -36 -26 -49 -17 -49 5 0 10 5 10 10 0 6 9
10 21 10 17 0 19 -4 13 -22 -4 -13 -7 -51 -7 -86 1 -51 5 -69 22 -89 13 -14
26 -48 31 -81 5 -30 15 -59 22 -64 10 -6 10 -8 0 -8 -7 0 -10 -5 -6 -12 4 -6
3 -8 -3 -5 -6 4 -16 0 -22 -7 -8 -10 -9 -16 -1 -21 7 -4 7 -12 0 -25 -5 -10
-10 -21 -10 -24 0 -3 398 -6 884 -6 l884 0 14 23 c19 29 28 66 18 72 -5 3 -10
69 -10 148 -1 78 -2 156 -3 172 0 17 -2 24 -4 18 -3 -7 -13 -13 -24 -13 -10 0
-19 -4 -19 -10 0 -5 -9 -10 -20 -10 -11 0 -20 -4 -20 -10 0 -5 -6 -10 -12 -10
-7 0 7 18 31 39 31 26 42 43 38 54 -4 12 1 19 18 23 13 3 31 14 41 25 9 10 22
19 27 19 14 0 36 32 30 46 -3 9 -11 9 -31 -1 -15 -7 -60 -15 -100 -18 l-73 -4
6 38 c8 47 -8 58 -53 35 -16 -8 -48 -20 -71 -25 -37 -8 -43 -7 -52 11 -9 18
-17 20 -56 14 -24 -3 -60 -13 -78 -22 -39 -18 -70 -15 -70 6 0 10 12 15 36 16
20 1 46 7 57 13 11 6 31 11 44 11 13 0 32 7 42 15 25 19 66 19 66 1 0 -8 -5
-18 -10 -21 -11 -7 -4 -25 8 -25 4 0 23 10 42 22 19 13 55 30 80 38 37 12 45
19 45 40 0 21 -6 26 -35 30 -27 4 -35 10 -35 25 0 16 9 22 40 27 63 11 95 20
95 27 0 3 -4 22 -9 42 -6 25 -4 43 5 60 19 33 17 41 -6 34 -19 -6 -20 -2 -20
83 0 64 4 93 14 101 18 15 24 40 16 71 -6 24 -7 23 -35 -20 -23 -33 -43 -49
-85 -66 -42 -17 -56 -28 -63 -50 -13 -39 -26 -54 -48 -54 -23 0 -24 13 -4 30
23 19 18 49 -15 86 -43 50 -22 94 55 113 30 8 53 23 77 50 18 22 46 45 61 52
21 10 27 19 27 44 0 48 -21 91 -43 87 -9 -2 -20 4 -23 13 -5 12 -17 16 -48 13
-41 -3 -41 -2 -55 42 -11 38 -39 113 -58 158 -3 6 0 12 6 12 6 0 11 -9 11 -19
0 -13 9 -21 29 -26 16 -3 35 -13 42 -21 6 -8 16 -14 22 -14 5 0 26 -12 46 -27
20 -16 41 -28 46 -29 23 -2 45 -17 45 -31 0 -22 22 -39 61 -47 49 -9 69 1 69
33 0 15 4 31 8 37 5 5 17 45 27 89 10 44 27 91 37 104 14 18 18 44 19 105 1
60 3 71 8 41 7 -45 16 -39 26 18 6 30 4 37 -9 37 -12 0 -15 6 -11 23 15 64 27
130 35 200 5 44 12 92 15 107 7 32 -13 78 -51 119 -13 14 -24 31 -24 38 0 20
31 15 57 -8 21 -20 23 -21 29 -5 11 28 -4 175 -26 250 -14 49 -28 77 -51 97
-20 17 -29 34 -26 46 4 14 5 14 6 -4 0 -13 6 -23 11 -23 16 0 12 37 -9 78 -10
20 -21 53 -25 72 -9 53 -67 136 -91 132 -11 -2 -22 -7 -25 -11 -3 -4 -14 -11
-24 -15 -19 -7 -19 -6 -1 14 10 11 25 20 34 20 10 1 -5 21 -39 52 -30 28 -43
43 -27 33 35 -22 34 -14 -5 46 -31 48 -38 53 -152 104 -87 39 -220 74 -255 67
-30 -7 -32 -9 -17 -21 19 -16 22 -45 4 -39 -7 3 -18 22 -24 43 -12 43 -32 56
-46 31 -5 -9 -13 -14 -18 -11 -4 3 -10 -2 -14 -10 -3 -8 -11 -15 -17 -15 -8 0
-8 4 0 14 10 11 10 20 1 37 -7 12 -15 42 -19 68 -6 35 -10 41 -15 26 -23 -65
-64 -128 -119 -184 -77 -77 -97 -90 -97 -62 0 11 -4 23 -10 26 -5 3 -10 -3
-10 -14 0 -11 -5 -23 -12 -27 -6 -4 -8 -3 -5 3 6 10 -12 23 -30 22 -3 0 -12
14 -19 31 -13 30 -15 31 -58 25 -51 -8 -60 2 -75 81 -10 55 5 67 50 40 63 -37
107 -28 89 18 -5 15 -8 31 -5 36 2 4 28 10 57 14 74 10 163 72 217 152 23 33
41 67 41 75 0 8 6 24 14 35 8 11 15 38 17 59 1 22 8 50 16 62 15 26 19 57 3
33 -16 -26 -3 82 14 115 9 17 16 36 16 43 0 7 4 11 9 8 13 -8 21 46 21 147 0
71 -5 106 -26 165 -27 79 -88 171 -126 190 -71 34 -127 53 -177 58 -31 3 -67
9 -81 13 -14 4 -38 4 -53 0z m17 -2006 c-3 -16 -8 -37 -10 -48 -4 -16 -2 -15
10 5 9 14 15 35 16 48 0 19 5 22 45 22 41 0 45 -2 45 -24 0 -13 -5 -26 -11
-28 -6 -2 -13 -24 -16 -49 -4 -37 -11 -48 -37 -64 -25 -15 -120 -53 -135 -55
-2 0 0 15 3 33 4 17 9 57 12 87 8 95 10 100 49 100 33 0 35 -2 29 -27z m1046
-141 c0 -4 -11 -23 -24 -43 -24 -36 -25 -36 -6 -67 10 -16 28 -33 40 -37 19
-6 21 -12 16 -38 -4 -17 -10 -33 -14 -37 -5 -3 -18 -21 -30 -41 -27 -45 -56
-55 -83 -28 -11 11 -17 24 -14 30 4 6 -9 7 -37 3 -24 -4 -45 -7 -48 -6 -28 0
-30 4 -26 62 l5 60 -40 0 -40 0 23 30 c29 39 54 38 73 -2 32 -69 51 -93 76
-93 17 0 28 9 38 32 8 17 22 34 33 36 18 5 18 7 2 46 -15 39 -15 41 6 71 19
27 50 41 50 22z m-618 -509 c10 -9 15 -20 12 -25 -3 -5 1 -17 10 -27 15 -17
14 -20 -16 -49 -18 -18 -47 -34 -67 -38 -20 -3 -51 -10 -70 -15 -19 -4 -37 -7
-39 -4 -2 2 -13 -5 -25 -16 -11 -10 -24 -19 -29 -19 -7 0 -14 116 -9 150 2 8
3 28 3 43 0 25 3 28 32 25 18 -2 30 -8 29 -15 -4 -18 14 -16 20 1 11 29 114
21 149 -11z m217 -5 c-1 -7 -1 -19 0 -25 2 -24 86 -88 144 -109 37 -14 16 -26
-32 -19 -55 7 -55 7 -126 -62 -41 -40 -64 -51 -78 -37 -9 9 20 35 35 32 7 -2
13 4 13 12 0 19 -69 57 -117 65 -21 4 -38 11 -38 17 0 6 8 7 18 3 30 -12 82
-18 82 -10 0 5 -7 17 -17 27 -31 34 -3 31 72 -7 78 -40 104 -41 67 -2 -12 13
-22 28 -22 34 0 6 -14 24 -31 41 -29 28 -30 31 -12 41 25 14 44 14 42 -1z
m-538 -110 c6 -12 22 -33 36 -47 29 -32 26 -55 -9 -59 -22 -3 -27 2 -33 27 -5
22 -14 33 -32 38 -33 8 -58 -21 -68 -75 -8 -45 -26 -71 -54 -77 -20 -4 -21 0
-21 65 l0 70 25 -10 c23 -9 30 -5 65 33 22 23 40 45 40 50 0 17 40 5 51 -15z
m-395 -354 c-4 -10 -2 -13 6 -8 7 5 9 2 5 -8 -3 -9 0 -21 6 -27 6 -6 8 -11 4
-11 -4 0 2 -16 13 -35 11 -20 20 -40 20 -45 0 -17 -84 -11 -145 10 -32 11 -66
20 -75 20 -20 0 -84 46 -73 53 4 3 42 12 83 22 41 9 89 23 105 30 41 19 58 18
51 -1z m284 -301 c0 -16 45 -100 66 -124 21 -24 17 -36 -16 -47 -19 -7 -32
-20 -36 -36 -5 -21 -12 -26 -39 -26 -29 0 -32 2 -27 25 2 14 8 28 13 31 5 3 2
16 -7 29 -16 24 -31 176 -19 195 8 13 65 -29 65 -47z m770 -298 c0 -9 -6 -18
-14 -21 -18 -7 -30 -55 -27 -107 2 -35 0 -38 -21 -37 -13 1 -25 1 -28 0 -11
-5 -80 -9 -80 -5 0 3 18 28 40 57 48 64 36 73 -41 32 -60 -33 -99 -76 -99
-109 0 -36 -91 -92 -122 -74 -10 6 -21 1 -36 -16 -12 -14 -26 -25 -31 -25 -5
0 -11 -9 -14 -21 -4 -15 0 -23 14 -26 35 -9 22 -42 -23 -63 -56 -26 -66 -25
-74 5 -3 14 -8 25 -10 25 -3 0 -18 -16 -35 -35 -41 -47 -88 -55 -128 -24 -47
38 -40 52 46 84 83 32 103 47 103 76 0 17 -5 19 -42 13 -24 -3 -54 -9 -68 -14
-14 -5 -40 -12 -58 -15 -29 -6 -33 -4 -30 11 2 11 18 23 39 29 33 9 45 17 89
57 23 20 17 48 -16 79 -29 27 -32 44 -5 29 11 -5 29 -10 40 -10 15 0 21 -6 21
-22 0 -22 1 -22 26 5 29 32 42 30 24 -3 -6 -11 -8 -30 -5 -40 4 -11 -1 -33
-11 -50 -10 -16 -16 -31 -13 -33 2 -3 28 -7 57 -11 43 -6 52 -4 52 9 0 8 29
45 65 81 36 36 65 71 65 77 0 14 52 51 90 65 14 5 50 13 80 17 30 4 62 11 70
16 8 5 36 9 63 9 36 0 47 -4 47 -15z"/>
<path d="M1415 4299 c-45 -22 -51 -71 -9 -69 73 2 119 -1 128 -10 7 -7 4 -10
-8 -10 -10 0 -14 -5 -10 -11 4 -7 0 -9 -12 -6 -55 17 -74 19 -74 7 0 -6 -5 -8
-12 -4 -7 4 -8 3 -4 -5 4 -6 0 -14 -8 -17 -16 -6 -23 -26 -8 -22 4 1 19 -2 35
-7 22 -6 25 -10 16 -21 -9 -11 -8 -14 5 -14 9 0 30 -7 45 -15 28 -14 29 -13
54 23 43 63 43 91 1 134 -20 21 -52 42 -72 48 -43 12 -41 12 -67 -1z"/>
<path d="M596 378 c-22 -43 -20 -64 10 -104 27 -35 27 -64 0 -64 -33 0 -59
-78 -42 -125 8 -23 64 -70 73 -61 3 3 -4 28 -16 55 -27 63 -26 73 4 99 19 17
25 31 25 65 0 24 -5 48 -11 54 -6 6 -8 17 -3 24 5 9 9 8 14 -7 5 -13 8 -8 8
19 0 20 -4 37 -9 37 -5 0 -9 -8 -9 -17 -1 -17 -2 -16 -15 1 -10 13 -11 24 -4
37 6 12 6 19 0 19 -5 0 -17 -14 -25 -32z"/>
</g>
</svg>
